<svg width="21" height="21" viewBox="0 0 21 21" fill="none" xmlns="http://www.w3.org/2000/svg">
<path d="M10.5 0.48202C12.7902 0.478779 15.0116 1.26492 16.79 2.70802C16.9023 2.79898 16.9936 2.91319 17.0575 3.0428C17.1214 3.17241 17.1565 3.31434 17.1603 3.4588C17.1641 3.60327 17.1365 3.74684 17.0795 3.87963C17.0225 4.01243 16.9374 4.13128 16.83 4.22802L15.32 5.59002C15.1485 5.74448 14.9288 5.83485 14.6982 5.84579C14.4676 5.85672 14.2404 5.78756 14.055 5.65002C13.0382 4.90272 11.8118 4.495 10.55 4.48484C9.28816 4.47467 8.05527 4.86258 7.02661 5.59341C5.99794 6.32423 5.22587 7.36076 4.82019 8.55561C4.4145 9.75046 4.39584 11.0428 4.76687 12.2489C5.1379 13.4549 5.87972 14.5133 6.88686 15.2735C7.894 16.0337 9.11517 16.4571 10.3767 16.4833C11.6383 16.5096 12.8761 16.1375 13.914 15.4198C14.9519 14.7022 15.7371 13.6756 16.158 12.486L16.159 12.482H12.499C12.2542 12.4817 12.0181 12.3917 11.8353 12.229C11.6524 12.0662 11.5356 11.8421 11.507 11.599L11.5 11.482V9.48202C11.5 9.2168 11.6054 8.96245 11.7929 8.77491C11.9804 8.58738 12.2348 8.48202 12.5 8.48202H19.445C19.6912 8.482 19.9287 8.5728 20.1121 8.73701C20.2955 8.90123 20.4119 9.12733 20.439 9.37202C20.479 9.73902 20.5 10.109 20.5 10.482C20.5 16.005 16.023 20.482 10.5 20.482C4.977 20.482 0.5 16.005 0.5 10.482C0.5 4.95902 4.977 0.48202 10.5 0.48202Z" fill="white"/>
</svg>
