<svg width="17" height="22" viewBox="0 0 17 22" fill="none" xmlns="http://www.w3.org/2000/svg">
<path d="M1.98169 21V18.7778C1.98169 17.599 2.47335 16.4686 3.34852 15.6351C4.22369 14.8016 5.41068 14.3333 6.64836 14.3333H11.315C12.5527 14.3333 13.7397 14.8016 14.6149 15.6351C15.49 16.4686 15.9817 17.599 15.9817 18.7778V21M4.31502 5.44444C4.31502 6.62318 4.80669 7.75365 5.68186 8.58714C6.55703 9.42064 7.74401 9.88889 8.98169 9.88889C10.2194 9.88889 11.4064 9.42064 12.2815 8.58714C13.1567 7.75365 13.6484 6.62318 13.6484 5.44444C13.6484 4.2657 13.1567 3.13524 12.2815 2.30175C11.4064 1.46825 10.2194 1 8.98169 1C7.74401 1 6.55703 1.46825 5.68186 2.30175C4.80669 3.13524 4.31502 4.2657 4.31502 5.44444Z" stroke="black" stroke-width="2" stroke-linecap="round" stroke-linejoin="round"/>
</svg>
