<svg width="85" height="26" viewBox="0 0 85 26" fill="none" xmlns="http://www.w3.org/2000/svg">
<path d="M84.9817 6.20505L77.56 23.833C77.488 23.993 77.396 24.121 77.284 24.217C77.18 24.313 77.016 24.361 76.792 24.361H75.208L78.0697 17.653L73.0537 6.20505H74.9017C75.0857 6.20505 75.2297 6.25305 75.3337 6.34905C75.4457 6.43705 75.5217 6.53705 75.5617 6.64905L78.8137 14.305C78.9417 14.641 79.0497 14.993 79.1377 15.361C79.2497 14.985 79.3697 14.629 79.4977 14.293L82.6537 6.64905C82.7017 6.52105 82.7817 6.41705 82.8937 6.33705C83.0137 6.24905 83.1457 6.20505 83.2897 6.20505H84.9817Z" fill="#00FF48"/>
<path d="M69.6242 18.553C68.6642 18.553 67.9242 18.2851 67.4042 17.7491C66.8922 17.2131 66.6362 16.4411 66.6362 15.4331V7.99305H65.1722C65.0442 7.99305 64.9362 7.95705 64.8482 7.88505C64.7602 7.80505 64.7162 7.68505 64.7162 7.52505V6.67305L66.7082 6.42105L67.2002 2.66505C67.2242 2.54505 67.2762 2.44905 67.3562 2.37705C67.4442 2.29705 67.5562 2.25705 67.6922 2.25705H68.7722V6.44505H72.2882V7.99305H68.7722V15.289C68.7722 15.801 68.8962 16.1811 69.1442 16.4291C69.3922 16.6771 69.7122 16.8011 70.1042 16.8011C70.3282 16.8011 70.5202 16.773 70.6802 16.717C70.8482 16.653 70.9922 16.5851 71.1122 16.5131C71.2322 16.4411 71.3322 16.377 71.4122 16.321C71.5002 16.257 71.5762 16.225 71.6402 16.225C71.7522 16.225 71.8522 16.2931 71.9402 16.4291L72.5642 17.449C72.1962 17.793 71.7522 18.065 71.2322 18.265C70.7122 18.457 70.1762 18.553 69.6242 18.553Z" fill="#00FF48"/>
<path d="M62.8 5.71305V23.3611V24.6389C62.8 25.1912 62.3523 25.639 61.8 25.639H45.708H30.708H15.708H0.708008V23.3611H15.708H30.708H45.708H60.708C60.708 16.0786 60.664 12.9956 60.664 5.71305H62.8ZM63.256 1.89705C63.256 2.10505 63.212 2.30105 63.124 2.48505C63.044 2.66105 62.932 2.82105 62.788 2.96505C62.652 3.10105 62.488 3.20905 62.296 3.28905C62.112 3.36905 61.916 3.40905 61.708 3.40905C61.5 3.40905 61.304 3.36905 61.12 3.28905C60.944 3.20905 60.788 3.10105 60.652 2.96505C60.516 2.82105 60.408 2.66105 60.328 2.48505C60.248 2.30105 60.208 2.10505 60.208 1.89705C60.208 1.68905 60.248 1.49305 60.328 1.30905C60.408 1.11705 60.516 0.953054 60.652 0.817053C60.788 0.673054 60.944 0.561054 61.12 0.481053C61.304 0.401053 61.5 0.361053 61.708 0.361053C61.916 0.361053 62.112 0.401053 62.296 0.481053C62.488 0.561054 62.652 0.673054 62.788 0.817053C62.932 0.953054 63.044 1.11705 63.124 1.30905C63.212 1.49305 63.256 1.68905 63.256 1.89705Z" fill="#00FF48"/>
<path d="M53.4124 8.64106C53.7964 7.80906 54.2684 7.16106 54.8284 6.69706C55.3884 6.22506 56.0724 5.98906 56.8804 5.98906C57.1364 5.98906 57.3804 6.01706 57.6124 6.07306C57.8524 6.12906 58.0644 6.21706 58.2484 6.33706L58.0924 7.93306C58.0444 8.13306 57.9244 8.23306 57.7324 8.23306C57.6204 8.23306 57.4564 8.20906 57.2404 8.16106C57.0244 8.11306 56.7804 8.08906 56.5084 8.08906C56.1244 8.08906 55.7804 8.14506 55.4764 8.25706C55.1804 8.36906 54.9124 8.53706 54.6724 8.76106C54.4404 8.97706 54.2284 9.24906 54.0364 9.57706C53.8524 9.89706 53.6844 10.2651 53.5324 10.6811V18.3611H51.3844V6.20506H52.6084C52.8404 6.20506 53.0004 6.24906 53.0884 6.33706C53.1764 6.42506 53.2364 6.57706 53.2684 6.79306L53.4124 8.64106Z" fill="#00FF48"/>
<path d="M47.9976 6.20505V18.361H46.7256C46.4216 18.361 46.2296 18.213 46.1496 17.917L45.9816 16.609C45.4536 17.193 44.8616 17.665 44.2056 18.025C43.5496 18.377 42.7976 18.553 41.9496 18.553C41.2856 18.553 40.6976 18.445 40.1856 18.229C39.6816 18.005 39.2576 17.693 38.9136 17.293C38.5696 16.893 38.3096 16.409 38.1336 15.841C37.9656 15.273 37.8816 14.645 37.8816 13.957V6.20505H40.0176V13.957C40.0176 14.877 40.2256 15.589 40.6416 16.093C41.0656 16.597 41.7096 16.849 42.5736 16.849C43.2056 16.849 43.7936 16.701 44.3376 16.405C44.8896 16.101 45.3976 15.685 45.8616 15.157V6.20505H47.9976Z" fill="#00FF48"/>
<path d="M35.0006 8.36506C34.9366 8.45306 34.8726 8.52106 34.8086 8.56906C34.7446 8.61706 34.6566 8.64106 34.5446 8.64106C34.4246 8.64106 34.2926 8.59306 34.1486 8.49706C34.0046 8.39306 33.8246 8.28106 33.6086 8.16106C33.4006 8.04106 33.1406 7.93306 32.8286 7.83706C32.5246 7.73306 32.1486 7.68106 31.7006 7.68106C31.1006 7.68106 30.5726 7.78906 30.1166 8.00506C29.6606 8.21306 29.2766 8.51706 28.9646 8.91706C28.6606 9.31706 28.4286 9.80106 28.2686 10.3691C28.1166 10.9371 28.0406 11.5731 28.0406 12.2771C28.0406 13.0131 28.1246 13.6691 28.2926 14.2451C28.4606 14.8131 28.6966 15.2931 29.0006 15.6851C29.3126 16.0691 29.6846 16.3651 30.1166 16.5731C30.5566 16.7731 31.0486 16.8731 31.5926 16.8731C32.1126 16.8731 32.5406 16.8131 32.8766 16.6931C33.2126 16.5651 33.4886 16.4251 33.7046 16.2731C33.9286 16.1211 34.1126 15.9851 34.2566 15.8651C34.4086 15.7371 34.5566 15.6731 34.7006 15.6731C34.8766 15.6731 35.0126 15.7411 35.1086 15.8771L35.7086 16.6571C35.4446 16.9851 35.1446 17.2651 34.8086 17.4971C34.4726 17.7291 34.1086 17.9251 33.7166 18.0851C33.3326 18.2371 32.9286 18.3491 32.5046 18.4211C32.0806 18.4931 31.6486 18.5291 31.2086 18.5291C30.4486 18.5291 29.7406 18.3891 29.0846 18.1091C28.4366 17.8291 27.8726 17.4251 27.3926 16.8971C26.9126 16.3611 26.5366 15.7051 26.2646 14.9291C25.9926 14.1531 25.8566 13.2691 25.8566 12.2771C25.8566 11.3731 25.9806 10.5371 26.2286 9.76906C26.4846 9.00106 26.8526 8.34106 27.3326 7.78906C27.8206 7.22906 28.4166 6.79306 29.1206 6.48106C29.8326 6.16906 30.6486 6.01306 31.5686 6.01306C32.4246 6.01306 33.1766 6.15306 33.8246 6.43306C34.4806 6.70506 35.0606 7.09306 35.5646 7.59706L35.0006 8.36506Z" fill="#00FF48"/>
<path d="M21.9969 10.9571C21.9969 10.4611 21.9249 10.0091 21.7809 9.60106C21.6449 9.18506 21.4409 8.82906 21.1689 8.53306C20.9049 8.22906 20.5809 7.99706 20.1969 7.83706C19.8129 7.66906 19.3769 7.58506 18.8889 7.58506C17.8649 7.58506 17.0529 7.88506 16.4529 8.48506C15.8609 9.07706 15.4929 9.90106 15.3489 10.9571H21.9969ZM23.7249 16.6571C23.4609 16.9771 23.1449 17.2571 22.7769 17.4971C22.4089 17.7291 22.0129 17.9211 21.5889 18.0731C21.1729 18.2251 20.7409 18.3371 20.2929 18.4091C19.8449 18.4891 19.4009 18.5291 18.9609 18.5291C18.1209 18.5291 17.3449 18.3891 16.6329 18.1091C15.9289 17.8211 15.3169 17.4051 14.7969 16.8611C14.2849 16.3091 13.8849 15.6291 13.5969 14.8211C13.3089 14.0131 13.1649 13.0851 13.1649 12.0371C13.1649 11.1891 13.2929 10.3971 13.5489 9.66106C13.8129 8.92506 14.1889 8.28906 14.6769 7.75306C15.1649 7.20906 15.7609 6.78506 16.4649 6.48106C17.1689 6.16906 17.9609 6.01306 18.8409 6.01306C19.5689 6.01306 20.2409 6.13706 20.8569 6.38506C21.4809 6.62506 22.0169 6.97706 22.4649 7.44106C22.9209 7.89706 23.2769 8.46506 23.5329 9.14506C23.7889 9.81706 23.9169 10.5851 23.9169 11.4491C23.9169 11.7851 23.8809 12.0091 23.8089 12.1211C23.7369 12.2331 23.6009 12.2891 23.4009 12.2891H15.2769C15.3009 13.0571 15.4049 13.7251 15.5889 14.2931C15.7809 14.8611 16.0449 15.3371 16.3809 15.7211C16.7169 16.0971 17.1169 16.3811 17.5809 16.5731C18.0449 16.7571 18.5649 16.8491 19.1409 16.8491C19.6769 16.8491 20.1369 16.7891 20.5209 16.6691C20.9129 16.5411 21.2489 16.4051 21.5289 16.2611C21.8089 16.1171 22.0409 15.9851 22.2249 15.8651C22.4169 15.7371 22.5809 15.6731 22.7169 15.6731C22.8929 15.6731 23.0289 15.7411 23.1249 15.8771L23.7249 16.6571Z" fill="#00FF48"/>
<path d="M10.2 3.85305C10.128 3.97305 10.048 4.06505 9.96 4.12905C9.88 4.18505 9.78 4.21305 9.66 4.21305C9.524 4.21305 9.364 4.14505 9.18 4.00905C8.996 3.87305 8.764 3.72505 8.484 3.56505C8.212 3.39705 7.88 3.24505 7.488 3.10905C7.104 2.97305 6.636 2.90505 6.084 2.90505C5.564 2.90505 5.104 2.97705 4.704 3.12105C4.312 3.25705 3.98 3.44505 3.708 3.68505C3.444 3.92505 3.244 4.20905 3.108 4.53705C2.972 4.85705 2.904 5.20505 2.904 5.58105C2.904 6.06105 3.02 6.46105 3.252 6.78105C3.492 7.09305 3.804 7.36105 4.188 7.58505C4.58 7.80905 5.02 8.00505 5.508 8.17305C6.004 8.33305 6.508 8.50105 7.02 8.67705C7.54 8.85305 8.044 9.05305 8.532 9.27705C9.028 9.49305 9.468 9.76905 9.852 10.1051C10.244 10.4411 10.556 10.8531 10.788 11.3411C11.028 11.8291 11.148 12.4291 11.148 13.1411C11.148 13.8931 11.02 14.6011 10.764 15.2651C10.508 15.9211 10.132 16.4931 9.636 16.9811C9.148 17.4691 8.544 17.8531 7.824 18.1331C7.112 18.4131 6.3 18.5531 5.388 18.5531C4.268 18.5531 3.252 18.3531 2.34 17.9531C1.428 17.5451 0.648 16.9971 0 16.3091L0.672 15.2051C0.736 15.1171 0.812 15.0451 0.9 14.9891C0.996 14.9251 1.1 14.8931 1.212 14.8931C1.316 14.8931 1.432 14.9371 1.56 15.0251C1.696 15.1051 1.848 15.2091 2.016 15.3371C2.184 15.4651 2.376 15.6051 2.592 15.7571C2.808 15.9091 3.052 16.0491 3.324 16.1771C3.604 16.3051 3.92 16.4131 4.272 16.5011C4.624 16.5811 5.02 16.6211 5.46 16.6211C6.012 16.6211 6.504 16.5451 6.936 16.3931C7.368 16.2411 7.732 16.0291 8.028 15.7571C8.332 15.4771 8.564 15.1451 8.724 14.7611C8.884 14.3771 8.964 13.9491 8.964 13.4771C8.964 12.9571 8.844 12.5331 8.604 12.2051C8.372 11.8691 8.064 11.5891 7.68 11.3651C7.296 11.1411 6.856 10.9531 6.36 10.8011C5.864 10.6411 5.36 10.4811 4.848 10.3211C4.336 10.1531 3.832 9.96105 3.336 9.74505C2.84 9.52905 2.4 9.24905 2.016 8.90505C1.632 8.56105 1.32 8.13305 1.08 7.62105C0.848 7.10105 0.732 6.46105 0.732 5.70105C0.732 5.09305 0.848 4.50505 1.08 3.93705C1.32 3.36905 1.664 2.86505 2.112 2.42505C2.568 1.98505 3.124 1.63305 3.78 1.36905C4.444 1.10505 5.204 0.973053 6.06 0.973053C7.02 0.973053 7.892 1.12505 8.676 1.42905C9.468 1.73305 10.164 2.17305 10.764 2.74905L10.2 3.85305Z" fill="#00FF48"/>
</svg>
